# AST/ASF file generated using VICON BodyLanguage
# -----------------------------------------------
:version 1.10
:name VICON
:units
  mass 1.0
  length 0.45
  angle deg
:documentation
   .ast/.asf automatically generated from VICON data using
   VICON BodyBuilder and BodyLanguage model FoxedUp or BRILLIANT.MOD
:root
   order TX TY TZ RX RY RZ
   axis XYZ
   position 0 0 0  
   orientation 0 0 0 
:bonedata
  begin
     id 1 
     name lhipjoint
     direction 0.440178 -0.822639 0.359871 
     length 2.53113 
     axis 0 0 0  XYZ
  end
  begin
     id 2 
     name lfemur
     direction 0.34202 -0.939693 0  
     length 7.88132  
     axis 0 0 20  XYZ
    dof rx ry rz
    limits (-160.0 20.0)
           (-70.0 70.0)
           (-60.0 70.0)
  end
  begin
     id 3 
     name ltibia
     direction 0.34202 -0.939693 0   
     length 8.43783   
     axis 0 0 20   XYZ
    dof rx
    limits (-10.0 170.0)
  end
  begin
     id 4 
     name lfoot
     direction 0.0886351 -0.243523 0.965837   
     length 2.63414   
     axis -90 7.62852e-016 20   XYZ
    dof rx rz
    limits (-45.0 90.0)
           (-70.0 20.0)
  end
  begin
     id 5 
     name ltoes
     direction 1.53703e-011 -4.21717e-011 1   
     length 1.31427   
     axis -90 7.62852e-016 20   XYZ
    dof rx
    limits (-90.0 20.0)
  end
  begin
     id 6 
     name rhipjoint
     direction -0.399779 -0.839773 0.367367   
     length 2.47948  
     axis 0 0 0  XYZ 
  end
  begin
     id 7 
     name rfemur
     direction -0.34202 -0.939693 0   
     length 7.74806   
     axis 0 0 -20   XYZ
    dof rx ry rz
    limits (-160.0 20.0)
           (-70.0 70.0)
           (-70.0 60.0)
  end
  begin
     id 8 
     name rtibia
     direction -0.34202 -0.939693 0   
     length 8.74432   
     axis 0 0 -20   XYZ
    dof rx
    limits (-10.0 170.0)
 end
 begin
     id 9 
     name rfoot
     direction -0.108514 -0.298139 0.948334   
     length 2.66102  
     axis -90 -7.62852e-016 -20   XYZ
    dof rx rz
    limits (-45.0 90.0)
           (-20.0 70.0)
  end
  begin
     id 10 
     name rtoes
     direction -1.53392e-011 -4.22077e-011 1   
     length 1.31983   
     axis -90 -7.62852e-016 -20   XYZ
    dof rx
    limits (-90.0 20.0)
  end
  begin
     id 11 
     name lowerback
     direction 0.0113257 0.999866 0.0118602   
     length 2.58694   
     axis 0 0 0   XYZ
    dof rx ry rz
    limits (-20.0 45.0)
           (-30.0 30.0)
           (-30.0 30.0)
  end
  begin
     id 12 
     name upperback
     direction -0.0164747 0.995193 -0.0965375   
     length 2.52368   
     axis 0 0 0   XYZ
    dof rx ry rz
    limits (-20.0 45.0)
           (-30.0 30.0)
           (-30.0 30.0)
  end
  begin
     id 13 
     name thorax
     direction -0.0194301 0.99433 -0.104552   
     length 2.56099   
     axis 0 0 0   XYZ
    dof rx ry rz
    limits (-20.0 45.0)
           (-30.0 30.0)
           (-30.0 30.0)
  end
  begin
     id 14 
     name lowerneck
     direction 0.0148543 0.995587 -0.092657   
     length 1.71582   
     axis 0 0 0   XYZ
    dof rx ry rz
    limits (-20.0 45.0)
           (-30.0 30.0)
           (-30.0 30.0)
  end
  begin
     id 15 
     name upperneck
     direction -0.0135467 0.993656 -0.111639   
     length 1.68937   
     axis 0 0 0   XYZ
    dof rx ry rz
    limits (-20.0 45.0)
           (-30.0 30.0)
           (-30.0 30.0)
  end
  begin
     id 16
     name head
     direction -0.00615349 0.999547 -0.029448  
     length 1.7462  
     axis 0 0 0   XYZ
    dof rx ry rz
    limits (-20.0 45.0)
           (-30.0 30.0)
           (-30.0 30.0)
  end
  begin
     id 17 
     name lclavicle
     direction 0.988267 0.149885 0.0293713  
     length 4.47222  
     axis 0 0 0   XYZ
    dof ry rz
    limits (-20.0 10.0)
           (0.0 20.0)
  end
  begin
     id 18 
     name lhumerus
     direction 1 -4.48986e-011 -1.14833e-027   
     length 5.37148   
     axis 180 -30 -90   XYZ
    dof rx ry rz
    limits (-60.0 90.0)
           (-90.0 90.0)
           (-90.0 90.0)
  end
  begin
     id 19
     name lradius
     direction 0.999998 0.00170963 -0.000987055   
     length 3.94212   
     axis 180 -30 -90   XYZ
    dof rx
    limits (-10.0 170.0)
  end
  begin
     id 20
     name lwrist
     direction 0.999998 7.53149e-005 -0.00194706   
     length 1.97106   
     axis 4.65056e-015 90 90   XYZ
    dof ry
    limits (-180.0 0.0)
 end
  begin
     id 21 
     name lhand
     direction 1 -4.48973e-011 -1.31746e-026   
     length 1.17917   
     axis 8.4065e-015 90 90   XYZ
    dof rx rz
    limits (-90.0 90.0)
           (-45.0 45.0)
  end
  begin
     id 22 
     name lfingers
     direction 1 -4.49107e-011 -2.63492e-026   
     length 0.950679   
     axis 1.6813e-014 90 90   XYZ
    dof rx
    limits (0.0 90.0)
  end
  begin
     id 23
     name lthumb
     direction 0.707107 -6.35048e-011 0.707107   
     length 1.36499   
     axis -90 45 2.85299e-015   XYZ
    dof rx rz
    limits (-45.0 45.0)
           (-45.0 45.0)
  end
  begin
     id 24 
     name rclavicle
     direction -0.996699 0.0642895 -0.0495725   
     length 4.62611  
     axis 0 0 0   XYZ 
    dof ry rz
    limits (-10.0 20.0)
           (-20.0 0.0)
  end
  begin
     id 25 
     name rhumerus
     direction -1 -4.48919e-011 -2.41059e-027  
     length 5.4981   
     axis 180 30 90   XYZ
    dof rx ry rz
    limits (-90.0 60.0)
           (-90.0 90.0)
           (-90.0 90.0)
  end
  begin
     id 26 
     name rradius
     direction -0.999999 0.00118101 -0.000681858   
     length 3.48381   
     axis 180 30 90   XYZ
    dof rx
    limits (-10.0 170.0)
  end
  begin
     id 27 
     name rwrist
     direction -0.999999 0.000321823 -0.00132288   
     length 1.7419   
     axis 4.65056e-015 -90 -90   XYZ
    dof ry
    limits (-180.0 0.0)
  end
  begin
     id 28
     name rhand
     direction -1 -4.49022e-011 -1.31746e-026   
     length 1.34932   
     axis 8.4065e-015 -90 -90   XYZ
    dof rx rz
    limits (-90.0 90.0)
           (-45.0 45.0)
  end
  begin
     id 29
     name rfingers
     direction -1 -4.49178e-011 -2.63492e-026   
     length 1.08785   
     axis 1.6813e-014 -90 -90   XYZ
    dof rx
    limits (0.0 90.0)
  end
  begin
     id 30
     name rthumb
     direction -0.707107 -6.34713e-011 0.707107   
     length 1.56195   
     axis -90 -45 -2.85299e-015   XYZ
    dof rx rz
    limits (-45.0 45.0)
           (-45.0 45.0)
  end
:hierarchy
  begin
    root lhipjoint rhipjoint lowerback
    lhipjoint lfemur
    lfemur ltibia
    ltibia lfoot
    lfoot ltoes
    rhipjoint rfemur
    rfemur rtibia
    rtibia rfoot
    rfoot rtoes
    lowerback upperback
    upperback thorax
    thorax lowerneck lclavicle rclavicle
    lowerneck upperneck
    upperneck head
    lclavicle lhumerus
    lhumerus lradius
    lradius lwrist
    lwrist lhand lthumb
    lhand lfingers
    rclavicle rhumerus
    rhumerus rradius
    rradius rwrist
    rwrist rhand rthumb
    rhand rfingers
  end

#!OML:ASF X:\für Bonn\!DataBase\2005_08_10_Bjorn_Final\c3d\bjorn.ASF
:FULLY-SPECIFIED
:DEGREES
1
root 1.0052 18.5008 5.13336 -166.516 -15.0269 174.834
lowerback 6.11117 -0.788755 -2.539
upperback 11.3183 -2.37205 -3.76739
thorax 8.4396 -1.80276 -2.69416
lowerneck -9.33554 -4.48716 -6.15902
upperneck 1.27914 -5.68573 7.1549
head 2.51293 -2.71372 3.16354
rclavicle 2.10712e-014 2.46493e-014
rhumerus -38.0454 -10.1963 -91.0168
rradius 29.3979
rwrist 10.0774
rhand -13.2926 18.9074
rfingers 7.12502
rthumb 12.8111 -10.6795
lclavicle 2.10712e-014 2.46493e-014
lhumerus -27.3718 -35.9244 87.6976
lradius 53.3672
lwrist -13.9131
lhand -42.9963 -17.041
lfingers 7.12502
lthumb -15.8548 12.3299
rfemur -49.298 -6.43617 8.84826
rtibia 53.7189
rfoot -9.34486 16.0508
rtoes -7.94413
lfemur -5.75836 7.73786 -17.4311
ltibia 32.4858
lfoot -18.5807 -12.8158
ltoes -21.3655
2
root 1.024 18.5425 5.07168 -166.028 -15.3211 174.957
lowerback 6.1321 -0.773957 -2.37676
upperback 11.34 -2.34736 -3.64875
thorax 8.45063 -1.77823 -2.65753
lowerneck -9.22229 -4.54037 -6.1999
upperneck 0.643892 -5.76313 7.44274
head 2.29795 -2.76038 3.26713
rclavicle -9.54166e-015 -1.35174e-014
rhumerus -37.8986 -10.2066 -90.8972
rradius 29.3213
rwrist 10.3184
rhand -13.2756 19.1468
rfingers 7.12502
rthumb 12.8276 -10.4391
lclavicle -9.54166e-015 -1.35174e-014
lhumerus -27.4276 -36.1303 88.1733
lradius 53.8668
lwrist -14.1082
lhand -42.9378 -16.8476
lfingers 7.12502
lthumb -15.7985 12.5277
rfemur -49.6904 -6.73464 9.44547
rtibia 53.2568
rfoot -9.23081 15.8275
rtoes -8.94909
lfemur -6.11862 7.73748 -17.1358
ltibia 32.2173
lfoot -17.8318 -13.0353
ltoes -21.0433
3
root 1.0421 18.5784 5.00955 -165.555 -15.6167 175.119
lowerback 6.108 -0.75781 -2.14946
upperback 11.4107 -2.32555 -3.52257
thorax 8.54081 -1.75267 -2.65495
lowerneck -9.18289 -4.59529 -6.18487
upperneck 0.0171269 -5.84205 7.63087
head 2.09399 -2.81093 3.3251
rclavicle 2.34566e-014 -6.52014e-014
rhumerus -37.6023 -10.1781 -90.8085
rradius 29.1872
rwrist 10.5713
rhand -13.2723 19.3547
rfingers 7.12502
rthumb 12.8307 -10.231
lclavicle 2.34566e-014 -6.52014e-014
lhumerus -27.3321 -36.2844 88.5467
lradius 54.3359
lwrist -14.3949
lhand -42.9023 -16.677
lfingers 7.12502
lthumb -15.7643 12.701
rfemur -50.1129 -7.04663 10.1093
rtibia 52.8351
rfoot -9.23046 15.427
rtoes -10.3912
lfemur -6.47927 7.72548 -16.8079
ltibia 31.9812
lfoot -17.1265 -13.1324
ltoes -20.7361
4
root 1.06063 18.6066 4.94589 -165.089 -15.8974 175.334
lowerback 6.0575 -0.755377 -1.89479
upperback 11.46 -2.31715 -3.36226
thorax 8.62239 -1.73028 -2.63097
lowerneck -9.23103 -4.64096 -6.16721
upperneck -0.384649 -5.90284 7.68788
head 1.97468 -2.84981 3.33732
rclavicle 3.18055e-015 5.52621e-014
rhumerus -37.2975 -10.0719 -90.6847
rradius 29.0485
rwrist 10.92
rhand -13.2831 19.5416
rfingers 7.12502
rthumb 12.8203 -10.0447
lclavicle 3.18055e-015 5.52621e-014
lhumerus -27.2512 -36.3153 88.9258
lradius 54.835
lwrist -14.8363
lhand -42.8703 -16.3838
lfingers 7.12502
lthumb -15.7335 12.9966
rfemur -50.579 -7.3577 10.8564
rtibia 52.4678
rfoot -9.24108 14.9097
rtoes -11.8867
lfemur -6.8387 7.57159 -16.4554
ltibia 31.7878
lfoot -16.5743 -12.979
ltoes -20.49
5
root 1.07947 18.6292 4.88017 -164.68 -16.1574 175.474
lowerback 6.09257 -0.753741 -1.71162
upperback 11.4788 -2.31342 -3.22273
thorax 8.62204 -1.71587 -2.58324
lowerneck -9.23738 -4.68021 -6.13047
upperneck -0.669591 -5.95635 7.67568
head 1.88254 -2.88394 3.32309
rclavicle 3.06128e-014 3.33958e-014
rhumerus -37.0194 -9.97482 -90.5218
rradius 28.8497
rwrist 11.3534
rhand -13.2841 19.738
rfingers 7.12502
rthumb 12.8193 -9.84838
lclavicle 3.06128e-014 3.33958e-014
lhumerus -27.2904 -36.2223 89.3355
lradius 55.42
lwrist -15.4758
lhand -42.7373 -15.8116
lfingers 7.12502
lthumb -15.6054 13.5789
rfemur -50.9739 -7.64447 11.5143
rtibia 52.1683
rfoot -9.22289 14.2899
rtoes -12.8164
lfemur -7.09073 7.43234 -16.1781
ltibia 31.6033
lfoot -16.1315 -12.7571
ltoes -20.3567
6
root 1.09708 18.6435 4.81323 -164.329 -16.3601 175.511
lowerback 6.22818 -0.759389 -1.6473
upperback 11.4668 -2.32474 -3.08312
thorax 8.53249 -1.72 -2.46288
lowerneck -9.24514 -4.69879 -6.22267
upperneck -0.83406 -5.96905 7.67284
head 1.83373 -2.89412 3.3391
rclavicle -7.95139e-015 -1.70955e-014
rhumerus -36.9694 -9.77264 -90.2831
rradius 28.772
rwrist 11.7753
rhand -13.3122 20.0511
rfingers 7.12502
rthumb 12.7922 -9.537
lclavicle -7.95139e-015 -1.70955e-014
lhumerus -27.4225 -35.9795 89.8307
lradius 55.9986
lwrist -16.1685
lhand -42.5271 -15.2729
lfingers 7.12502
lthumb -15.4029 14.1333
rfemur -51.2865 -7.90841 12.0386
rtibia 51.9319
rfoot -9.12105 13.6157
rtoes -13.0299
lfemur -7.21149 7.24751 -16.0468
ltibia 31.4198
lfoot -15.913 -12.3005
ltoes -20.7419
7
root 1.1142 18.6512 4.7455 -164.038 -16.5384 175.521
lowerback 6.46289 -0.78676 -1.62695
upperback 11.4133 -2.36627 -2.93377
thorax 8.34067 -1.74264 -2.30079
lowerneck -9.13969 -4.68283 -6.41582
upperneck -1.03248 -5.92966 7.72548
head 1.756 -2.87881 3.39873
rclavicle -8.74653e-015 3.85642e-014
rhumerus -37.0641 -9.47574 -89.9888
rradius 28.733
rwrist 12.2266
rhand -13.3423 20.4084
rfingers 7.12502
rthumb 12.7632 -9.18149
lclavicle -8.74653e-015 3.85642e-014
lhumerus -27.6534 -35.6438 90.3958
lradius 56.5415
lwrist -16.7625
lhand -42.3213 -14.7507
lfingers 7.12502
lthumb -15.2047 14.6707
rfemur -51.5365 -8.14647 12.5146
rtibia 51.7509
rfoot -8.92149 12.9741
rtoes -12.5505
lfemur -7.21072 6.91838 -15.9785
ltibia 31.2181
lfoot -15.9072 -11.5707
ltoes -21.5767
8
root 1.13095 18.6524 4.67718 -163.769 -16.7059 175.572
lowerback 6.72509 -0.827959 -1.5533
upperback 11.3211 -2.41956 -2.78565
thorax 8.08848 -1.7642 -2.16604
lowerneck -8.91337 -4.61979 -6.62426
upperneck -1.30198 -5.83092 7.81404
head 1.63051 -2.83581 3.47954
rclavicle 9.54166e-015 -8.74653e-015
rhumerus -37.2321 -9.22128 -89.6544
rradius 28.7259
rwrist 12.8033
rhand -13.3295 20.7732
rfingers 7.12502
rthumb 12.7756 -8.81594
lclavicle 9.54166e-015 -8.74653e-015
lhumerus -27.9698 -35.2888 90.9705
lradius 57.0631
lwrist -17.0948
lhand -42.1123 -14.5838
lfingers 7.12502
lthumb -15.0034 14.8526
rfemur -51.7813 -8.29707 12.9896
rtibia 51.6134
rfoot -8.65571 12.2651
rtoes -11.461
lfemur -7.15262 6.55602 -15.8964
ltibia 30.9997
lfoot -16.076 -10.6401
ltoes -22.8525
9
root 1.14608 18.646 4.6083 -163.555 -16.8571 175.708
lowerback 7.00453 -0.874185 -1.36333
upperback 11.2291 -2.47734 -2.63309
thorax 7.8235 -1.77906 -2.09074
lowerneck -8.71464 -4.53631 -6.8118
upperneck -1.58933 -5.70763 7.90399
head 1.50125 -2.78081 3.55799
rclavicle -9.06458e-014 4.37326e-015
rhumerus -37.462 -9.02063 -89.2932
rradius 28.8178
rwrist 13.4721
rhand -13.3118 21.0488
rfingers 7.12502
rthumb 12.7926 -8.53927
lclavicle -9.06458e-014 4.37326e-015
lhumerus -28.2437 -34.8781 91.4696
lradius 57.5176
lwrist -17.2423
lhand -41.9338 -14.9287
lfingers 7.12502
lthumb -14.8314 14.5205
rfemur -51.9919 -8.36923 13.5134
rtibia 51.5162
rfoot -8.42545 11.5647
rtoes -10.1814
lfemur -7.00722 6.06028 -15.7683
ltibia 30.7526
lfoot -16.4896 -9.41492
ltoes -24.3755
10
root 1.16084 18.6271 4.53974 -163.375 -17.0034 175.884
lowerback 7.28845 -0.920081 -1.08905
upperback 11.1491 -2.53317 -2.49747
thorax 7.56681 -1.78713 -2.08103
lowerneck -8.61827 -4.45429 -6.9505
upperneck -1.8582 -5.58952 7.99827
head 1.39497 -2.72749 3.62666
rclavicle -3.97569e-015 -1.90833e-014
rhumerus -37.7323 -8.87806 -88.9544
rradius 28.9972
rwrist 14.1599
rhand -13.2904 21.2661
rfingers 7.12502
rthumb 12.8132 -8.32062
lclavicle -3.97569e-015 -1.90833e-014
lhumerus -28.5132 -34.4612 91.862
lradius 58.0156
lwrist -17.2782
lhand -41.7509 -15.4453
lfingers 7.12502
lthumb -14.6551 14.0168
rfemur -52.1704 -8.33163 14.0138
rtibia 51.4605
rfoot -8.20888 10.8332
rtoes -8.75339
lfemur -6.79099 5.52451 -15.6117
ltibia 30.4831
lfoot -17.0813 -8.09349
ltoes -25.8856
11
root 1.17485 18.5917 4.47048 -163.243 -17.1248 176.091
lowerback 7.50151 -0.955358 -0.770417
upperback 11.1614 -2.58604 -2.36936
thorax 7.45189 -1.79617 -2.1132
lowerneck -8.54838 -4.36461 -6.96043
upperneck -2.36259 -5.47316 8.01922
head 1.20782 -2.68327 3.64514
rclavicle -2.06736e-014 -4.57205e-014
rhumerus -37.8689 -8.75017 -88.6567
rradius 29.207
rwrist 14.7359
rhand -13.264 21.4642
rfingers 7.12502
rthumb 12.8387 -8.12096
lclavicle -2.06736e-014 -4.57205e-014
lhumerus -28.6 -34.0168 92.0935
lradius 58.4654
lwrist -17.2968
lhand -41.5184 -16.0027
lfingers 7.12502
lthumb -14.4312 13.4755
rfemur -52.298 -8.20745 14.4904
rtibia 51.4443
rfoot -8.05379 10.1326
rtoes -7.30896
lfemur -6.48051 4.93622 -15.4426
ltibia 30.2176
lfoot -17.7231 -6.80677
ltoes -26.9902
12
root 1.18785 18.5504 4.40171 -163.172 -17.2385 176.298
lowerback 7.67563 -0.962856 -0.391761
upperback 11.2849 -2.61911 -2.25464
thorax 7.48117 -1.79768 -2.20189
lowerneck -8.3779 -4.28089 -6.87623
upperneck -3.27379 -5.38122 8.01187
head 0.867512 -2.66575 3.63876
rclavicle 3.57812e-015 -1.78906e-014
rhumerus -37.8167 -8.85674 -88.3256
rradius 29.3987
rwrist 15.379
rhand -13.2046 21.67
rfingers 7.12502
rthumb 12.896 -7.91159
lclavicle 3.57812e-015 -1.78906e-014
lhumerus -28.5093 -33.6396 92.1843
lradius 58.9073
lwrist -17.3314
lhand -41.224 -16.4175
lfingers 7.12502
lthumb -14.1475 13.0808
rfemur -52.3451 -8.02501 14.9315
rtibia 51.4763
rfoot -8.12294 9.47485
rtoes -6.63659
lfemur -6.07894 4.27961 -15.2878
ltibia 29.9823
lfoot -18.3479 -5.42111
ltoes -28.1628
13
root 1.19891 18.5102 4.33157 -163.181 -17.329 176.513
lowerback 7.81972 -0.941998 0.0421807
upperback 11.4944 -2.62963 -2.1399
thorax 7.62328 -1.78886 -2.32846
lowerneck -8.30609 -4.21791 -6.78199
upperneck -4.24989 -5.32152 7.97752
head 0.526371 -2.66881 3.62055
rclavicle 4.69132e-014 1.19271e-014
rhumerus -37.6336 -9.09812 -87.9575
rradius 29.5788
rwrist 16.0192
rhand -13.1995 21.7894
rfingers 7.12502
rthumb 12.9009 -7.79189
lclavicle 4.69132e-014 1.19271e-014
lhumerus -28.28 -33.2663 92.2041
lradius 59.2605
lwrist -17.3709
lhand -41.025 -16.7143
lfingers 7.12502
lthumb -13.9557 12.7973
rfemur -52.2898 -7.86333 15.3678
rtibia 51.5783
rfoot -8.57941 9.01286
rtoes -6.66416
lfemur -5.57855 3.53612 -15.1522
ltibia 29.8193
lfoot -18.8939 -3.91717
ltoes -29.5786
14
root 1.20909 18.4665 4.26257 -163.271 -17.4107 176.713
lowerback 8.00549 -0.903823 0.491193
upperback 11.7543 -2.63177 -2.01233
thorax 7.80047 -1.77924 -2.45133
lowerneck -8.55565 -4.1901 -6.73674
upperneck -4.99628 -5.30115 7.9144
head 0.320566 -2.68533 3.59373
rclavicle -6.08281e-014 4.77083e-015
rhumerus -37.2746 -9.57122 -87.4805
rradius 29.6124
rwrist 16.7508
rhand -13.4724 21.5986
rfingers 7.12502
rthumb 12.6378 -7.99911
lclavicle -6.08281e-014 4.77083e-015
lhumerus -27.976 -32.9352 92.2175
lradius 59.5156
lwrist -17.4251
lhand -41.068 -16.7369
lfingers 7.12502
lthumb -13.9971 12.7719
rfemur -52.1498 -7.73887 15.7852
rtibia 51.7868
rfoot -9.49447 8.68487
rtoes -7.43067
lfemur -4.98409 2.64583 -15.0592
ltibia 29.7708
lfoot -19.4035 -2.43595
ltoes -30.2443
